<svg xmlns="http://www.w3.org/2000/svg" version="1.1" xmlns:xlink="http://www.w3.org/1999/xlink" xmlns:svgjs="http://svgjs.dev/svgjs" width="2000" height="1500" viewBox="0 0 2000 1500"><rect width="2000" height="1500" fill="#000000"></rect><g transform="matrix(0.75,0,0,0.75,249.090909090909,282.7536437246963)"><svg viewBox="0 0 396 247" data-background-color="#000000" preserveAspectRatio="xMidYMid meet" height="1247" width="2000" xmlns="http://www.w3.org/2000/svg" xmlns:xlink="http://www.w3.org/1999/xlink"><g id="tight-bounds" transform="matrix(1,0,0,1,0.2400000000000091,-0.09999999999999432)"><svg viewBox="0 0 395.52 247.2" height="247.2" width="395.52"><rect width="395.52" height="247.2" fill="url(#fb6a6ee3-146f-4179-b53d-1ce5e664a315)" mask="url(#8087fb75-0ccf-4c7a-b209-849f5c628578)" data-fill-palette-color="tertiary"></rect><g><svg></svg></g><g><svg viewBox="0 0 395.52 247.2" height="247.2" width="395.52"><g transform="matrix(1,0,0,1,75.54432,66.566016)"><svg viewBox="0 0 244.43135999999998 114.06796799999998" height="114.06796799999998" width="244.43135999999998"><g><svg viewBox="0 0 244.43135999999998 114.06796799999998" height="114.06796799999998" width="244.43135999999998"><g><svg viewBox="0 0 244.43136 114.067968" height="114.06796799999998" width="244.43135999999998"><g><svg viewBox="0 0 244.43136 114.067968" height="114.067968" width="244.43136"><g id="textblocktransform"><svg viewBox="0 0 244.43136 114.067968" height="114.067968" width="244.43136" id="textblock"><g><svg viewBox="0 0 244.43136 114.067968" height="114.067968" width="244.43136"><g transform="matrix(1,0,0,1,0,0)"><svg width="244.43136" viewBox="0 -50 93.75 43.75" height="114.067968" data-palette-color="url(#64e70c83-66e9-4c8b-b740-3da7e9138b41)"></svg></g></svg></g></svg></g></svg></g></svg></g></svg></g></svg></g><path d="M160.071 60.566L160.071 11.595 384.081 11.595 384.081 235.605 160.071 235.605 160.071 186.634 170.358 186.634 170.358 225.318 373.794 225.318 373.794 21.882 170.358 21.882 170.358 60.566Z" fill="url(#fb6a6ee3-146f-4179-b53d-1ce5e664a315)" stroke="transparent" data-fill-palette-color="tertiary"></path></svg></g><defs></defs><mask id="4fd6c925-1d6f-464d-bd90-b6362c50f65d"><g id="SvgjsG2833"><svg viewBox="0 0 395.52 247.2" height="247.2" width="395.52"><g><svg></svg></g><g><svg viewBox="0 0 395.52 247.2" height="247.2" width="395.52"><g transform="matrix(1,0,0,1,75.54432,66.566016)"><svg viewBox="0 0 244.43135999999998 114.06796799999998" height="114.06796799999998" width="244.43135999999998"><g><svg viewBox="0 0 244.43135999999998 114.06796799999998" height="114.06796799999998" width="244.43135999999998"><g><svg viewBox="0 0 244.43136 114.067968" height="114.06796799999998" width="244.43135999999998"><g><svg viewBox="0 0 244.43136 114.067968" height="114.067968" width="244.43136"><g id="SvgjsG2832"><svg viewBox="0 0 244.43136 114.067968" height="114.067968" width="244.43136" id="SvgjsSvg2831"><g><svg viewBox="0 0 244.43136 114.067968" height="114.067968" width="244.43136"><g transform="matrix(1,0,0,1,0,0)"><svg width="244.43136" viewBox="0 -50 93.75 43.75" height="114.067968" data-palette-color="url(#64e70c83-66e9-4c8b-b740-3da7e9138b41)"><path d="M43.75-6.25L12.5-6.25 12.5-12.5 6.25-12.5 6.25-18.75 0-18.75 0-37.5 6.25-37.5 6.25-43.75 12.5-43.75 12.5-50 43.75-50 43.75-43.75 18.75-43.75 18.75-37.5 12.5-37.5 12.5-18.75 18.75-18.75 18.75-12.5 31.25-12.5 31.25-25 25-25 25-31.25 43.75-31.25 43.75-6.25ZM62.5-6.25L50-6.25 50-50 62.5-50 62.5-43.75 68.75-43.75 68.75-37.5 75-37.5 75-43.75 81.25-43.75 81.25-50 93.75-50 93.75-6.25 81.25-6.25 81.25-31.25 75-31.25 75-18.75 68.75-18.75 68.75-31.25 62.5-31.25 62.5-6.25Z" opacity="1" transform="matrix(1,0,0,1,0,0)" fill="white" class="wordmark-text-0" id="SvgjsPath2830"></path></svg></g></svg></g></svg></g></svg></g></svg></g></svg></g></svg></g><path d="M160.071 60.566L160.071 11.595 384.081 11.595 384.081 235.605 160.071 235.605 160.071 186.634 170.358 186.634 170.358 225.318 373.794 225.318 373.794 21.882 170.358 21.882 170.358 60.566Z" fill="black" stroke="transparent"></path></svg></g><defs><mask></mask></defs></svg><rect width="395.52" height="247.2" fill="black" stroke="none" visibility="hidden"></rect></g></mask><linearGradient x1="0" x2="1" y1="0.5" y2="0.5" id="64e70c83-66e9-4c8b-b740-3da7e9138b41"><stop stop-color="#f00b51" offset="0"></stop><stop stop-color="#730062" offset="1"></stop></linearGradient><rect width="395.52" height="247.2" fill="url(#64e70c83-66e9-4c8b-b740-3da7e9138b41)" mask="url(#4fd6c925-1d6f-464d-bd90-b6362c50f65d)" data-fill-palette-color="primary"></rect><mask id="8087fb75-0ccf-4c7a-b209-849f5c628578"><g id="SvgjsG2856"><svg viewBox="0 0 395.52 247.2" height="247.2" width="395.52"><g><svg></svg></g><g><svg viewBox="0 0 395.52 247.2" height="247.2" width="395.52"><g transform="matrix(1,0,0,1,75.54432,66.566016)"><svg viewBox="0 0 244.43135999999998 114.06796799999998" height="114.06796799999998" width="244.43135999999998"><g><svg viewBox="0 0 244.43135999999998 114.06796799999998" height="114.06796799999998" width="244.43135999999998"><g><svg viewBox="0 0 244.43136 114.067968" height="114.06796799999998" width="244.43135999999998"><g><svg viewBox="0 0 244.43136 114.067968" height="114.067968" width="244.43136"><g id="SvgjsG2855"><svg viewBox="0 0 244.43136 114.067968" height="114.067968" width="244.43136" id="SvgjsSvg2854"><g><svg viewBox="0 0 244.43136 114.067968" height="114.067968" width="244.43136"><g transform="matrix(1,0,0,1,0,0)"><svg width="244.43136" viewBox="0 -50 93.75 43.75" height="114.067968" data-palette-color="url(#64e70c83-66e9-4c8b-b740-3da7e9138b41)"></svg></g></svg></g></svg></g></svg></g></svg></g></svg></g></svg></g><path d="M160.071 60.566L160.071 11.595 384.081 11.595 384.081 235.605 160.071 235.605 160.071 186.634 170.358 186.634 170.358 225.318 373.794 225.318 373.794 21.882 170.358 21.882 170.358 60.566Z" fill="white" stroke="transparent"></path></svg></g><defs><mask></mask></defs><mask><g id="SvgjsG2853"><svg viewBox="0 0 395.52 247.2" height="247.2" width="395.52"><g><svg></svg></g><g><svg viewBox="0 0 395.52 247.2" height="247.2" width="395.52"><g transform="matrix(1,0,0,1,75.54432,66.566016)"><svg viewBox="0 0 244.43135999999998 114.06796799999998" height="114.06796799999998" width="244.43135999999998"><g><svg viewBox="0 0 244.43135999999998 114.06796799999998" height="114.06796799999998" width="244.43135999999998"><g><svg viewBox="0 0 244.43136 114.067968" height="114.06796799999998" width="244.43135999999998"><g><svg viewBox="0 0 244.43136 114.067968" height="114.067968" width="244.43136"><g id="SvgjsG2852"><svg viewBox="0 0 244.43136 114.067968" height="114.067968" width="244.43136" id="SvgjsSvg2851"><g><svg viewBox="0 0 244.43136 114.067968" height="114.067968" width="244.43136"><g transform="matrix(1,0,0,1,0,0)"><svg width="244.43136" viewBox="0 -50 93.75 43.75" height="114.067968" data-palette-color="url(#64e70c83-66e9-4c8b-b740-3da7e9138b41)"><path d="M43.75-6.25L12.5-6.25 12.5-12.5 6.25-12.5 6.25-18.75 0-18.75 0-37.5 6.25-37.5 6.25-43.75 12.5-43.75 12.5-50 43.75-50 43.75-43.75 18.75-43.75 18.75-37.5 12.5-37.5 12.5-18.75 18.75-18.75 18.75-12.5 31.25-12.5 31.25-25 25-25 25-31.25 43.75-31.25 43.75-6.25ZM62.5-6.25L50-6.25 50-50 62.5-50 62.5-43.75 68.75-43.75 68.75-37.5 75-37.5 75-43.75 81.25-43.75 81.25-50 93.75-50 93.75-6.25 81.25-6.25 81.25-31.25 75-31.25 75-18.75 68.75-18.75 68.75-31.25 62.5-31.25 62.5-6.25Z" opacity="1" transform="matrix(1,0,0,1,0,0)" fill="black" class="wordmark-text-0" id="SvgjsPath2850"></path></svg></g></svg></g></svg></g></svg></g></svg></g></svg></g></svg></g><path d="M160.071 60.566L160.071 11.595 384.081 11.595 384.081 235.605 160.071 235.605 160.071 186.634 170.358 186.634 170.358 225.318 373.794 225.318 373.794 21.882 170.358 21.882 170.358 60.566Z" fill="black" stroke="transparent"></path></svg></g><defs><mask></mask></defs></svg><rect width="395.52" height="247.2" fill="black" stroke="none" visibility="hidden"></rect></g></mask></svg><rect width="395.52" height="247.2" fill="black" stroke="none" visibility="hidden"></rect></g></mask><linearGradient x1="0" x2="1" y1="0.5" y2="0.5" id="fb6a6ee3-146f-4179-b53d-1ce5e664a315"><stop stop-color="#f00b51" offset="0"></stop><stop stop-color="#730062" offset="1"></stop></linearGradient></svg><rect width="395.52" height="247.2" fill="none" stroke="none" visibility="hidden"></rect></g></svg></g></svg>